<?xml version="1.0" encoding="UTF-8"?>
<svg version="1.1" xmlns="http://www.w3.org/2000/svg" width="256" height="256">
<path d="M0 0 C63.36 0 126.72 0 192 0 C192 14.52 192 29.04 192 44 C188.7 44 185.4 44 182 44 C182.00999275 46.04048523 182.00999275 46.04048523 182.02018738 48.12219238 C182.08104548 60.95215406 182.12599533 73.78208638 182.15543652 86.61215973 C182.17108142 93.20797245 182.19229861 99.80366849 182.22631836 106.39941406 C182.25895315 112.76660812 182.27686186 119.13369005 182.28463173 125.5009613 C182.29016779 127.92819483 182.30097834 130.35542233 182.31719017 132.78260803 C182.33901868 136.18658635 182.34196458 139.59010339 182.34057617 142.99414062 C182.351362 143.99395966 182.36214783 144.99377869 182.3732605 146.02389526 C182.3414867 153.2396889 181.48513797 159.04470079 176.6875 164.75 C170.52913154 169.90584336 166.36825688 172.11650061 158.409729 172.14044189 C156.70233551 172.14900711 156.70233551 172.14900711 154.96044922 172.15774536 C153.71569824 172.15886322 152.47094727 172.15998108 151.18847656 172.16113281 C149.8742572 172.16609772 148.56003784 172.17106262 147.20599365 172.17617798 C143.602503 172.18928104 139.99903096 172.19574298 136.39552021 172.20018864 C134.14209303 172.20312309 131.88867091 172.20722863 129.63524628 172.21169281 C122.57874585 172.22536299 115.52225701 172.23503167 108.46574426 172.2388947 C100.33143828 172.24337271 92.19730057 172.26091059 84.06304574 172.2898953 C77.76819653 172.31154374 71.47339455 172.32160069 65.17850852 172.32293582 C61.42234812 172.3239817 57.66634599 172.3298429 53.91022491 172.34775543 C50.37416092 172.36429074 46.83837324 172.3663654 43.30228424 172.35761642 C41.39539066 172.35648466 39.48850602 172.37016029 37.58166504 172.3843689 C29.72886205 172.34632464 23.47867902 171.92525281 17.25 166.6875 C12.46536913 160.97252424 9.87124726 156.78740033 9.87974548 149.34295654 C9.87768349 147.94637314 9.87768349 147.94637314 9.87557983 146.52157593 C9.87917511 145.50737579 9.88277039 144.49317566 9.88647461 143.44824219 C9.88632858 142.37476532 9.88618256 141.30128845 9.8860321 140.19528198 C9.88672897 136.64579246 9.89451086 133.09635536 9.90234375 129.546875 C9.90420873 127.08636504 9.90563226 124.6258547 9.90663147 122.16534424 C9.91045033 115.68805924 9.92027528 109.21079665 9.93133545 102.73352051 C9.9415631 96.12443342 9.946132 89.51534272 9.95117188 82.90625 C9.96189808 69.93749015 9.97896697 56.96874694 10 44 C6.7 44 3.4 44 0 44 C0 29.48 0 14.96 0 0 Z M11 12 C11 18.6 11 25.2 11 32 C67.1 32 123.2 32 181 32 C181 25.4 181 18.8 181 12 C124.9 12 68.8 12 11 12 Z M22 44 C21.938125 61.881875 21.87625 79.76375 21.8125 98.1875 C21.78518799 103.83254639 21.75787598 109.47759277 21.72973633 115.29370117 C21.71970267 120.35641968 21.71970267 120.35641968 21.71366882 125.41914368 C21.70906382 127.67310868 21.69851618 129.92706633 21.68327332 132.1809845 C21.66133193 135.5962914 21.65828139 139.0111469 21.65942383 142.42651367 C21.6486295 143.42967463 21.63783518 144.4328356 21.62671375 145.46639538 C21.61884096 152.25660096 21.61884096 152.25660096 25 158 C28.22696287 160.02624809 30.75916719 160.25277158 34.53453064 160.26069641 C36.22318489 160.27132362 36.22318489 160.27132362 37.94595337 160.28216553 C39.176716 160.27968811 40.40747864 160.27721069 41.67553711 160.2746582 C43.62483376 160.2823246 43.62483376 160.2823246 45.61351013 160.29014587 C49.17550748 160.30353285 52.7373987 160.3041149 56.2994163 160.30158257 C59.27409232 160.30051266 62.24874688 160.30539674 65.2234183 160.310188 C72.24165392 160.32128212 79.25983602 160.32172112 86.27807617 160.31567383 C93.51606639 160.30963305 100.75386226 160.3219478 107.99181932 160.3432439 C114.20849977 160.36086192 120.42511838 160.36686095 126.64182287 160.36360615 C130.35372137 160.36179348 134.06548123 160.36442781 137.7773571 160.37832069 C141.91672248 160.39323399 146.05569244 160.3839272 150.19506836 160.37231445 C151.42380676 160.37995819 152.65254517 160.38760193 153.91851807 160.39547729 C155.04710739 160.38846298 156.17569672 160.38144867 157.33848572 160.3742218 C158.80602248 160.37447341 158.80602248 160.37447341 160.30320644 160.37473011 C163.55873039 159.92236221 165.39008386 158.98414884 168 157 C169.96446324 154.12506431 170.24843129 151.81918047 170.24050903 148.38092041 C170.24326403 147.46018864 170.24601902 146.53945686 170.2488575 145.59082413 C170.24166128 144.58406506 170.23446507 143.57730598 170.22705078 142.54003906 C170.22741239 140.9186735 170.22741239 140.9186735 170.2277813 139.26455307 C170.22628823 135.76482672 170.21105555 132.26531325 170.1953125 128.765625 C170.19237205 126.60530703 170.19033162 124.44498765 170.18920898 122.28466797 C170.17872188 114.27309025 170.1507995 106.26154304 170.125 98.25 C170.08375 80.3475 170.0425 62.445 170 44 C121.16 44 72.32 44 22 44 Z " fill="#000000" transform="translate(32,42)"/>
<path d="M0 0 C1.10794922 -0.01260864 2.21589844 -0.02521729 3.35742188 -0.03820801 C4.54916016 -0.03011108 5.74089844 -0.02201416 6.96875 -0.01367188 C8.19658203 -0.01749878 9.42441406 -0.02132568 10.68945312 -0.02526855 C13.28516459 -0.02799029 15.88090336 -0.02061099 18.4765625 -0.00390625 C22.45374599 0.01749738 26.42912282 -0.0037015 30.40625 -0.02929688 C32.92708733 -0.02665365 35.44792353 -0.02152878 37.96875 -0.01367188 C39.16048828 -0.0217688 40.35222656 -0.02986572 41.58007812 -0.03820801 C43.24200195 -0.01929504 43.24200195 -0.01929504 44.9375 0 C45.91138672 0.00318237 46.88527344 0.00636475 47.88867188 0.00964355 C51.19021681 0.65961178 52.38452655 1.93295409 54.46875 4.51757812 C55 6.51757812 55 6.51757812 54.96875 8.51757812 C54.98421875 9.50757812 54.98421875 9.50757812 55 10.51757812 C54.2245785 13.43681202 52.78007479 14.6111988 50.46875 16.51757812 C47.88867188 17.0255127 47.88867188 17.0255127 44.9375 17.03515625 C43.82955078 17.04776489 42.72160156 17.06037354 41.58007812 17.07336426 C40.38833984 17.06526733 39.19660156 17.05717041 37.96875 17.04882812 C36.12700195 17.05456848 36.12700195 17.05456848 34.24804688 17.0604248 C31.65233541 17.06314654 29.05659664 17.05576724 26.4609375 17.0390625 C22.48375401 17.01765887 18.50837718 17.03885775 14.53125 17.06445312 C12.01041267 17.0618099 9.48957647 17.05668503 6.96875 17.04882812 C5.77701172 17.05692505 4.58527344 17.06502197 3.35742188 17.07336426 C1.69549805 17.05445129 1.69549805 17.05445129 0 17.03515625 C-0.97388672 17.03197388 -1.94777344 17.0287915 -2.95117188 17.0255127 C-6.25271681 16.37554447 -7.44702655 15.10220216 -9.53125 12.51757812 C-10.0625 10.51757812 -10.0625 10.51757812 -10.03125 8.51757812 C-10.04671875 7.52757813 -10.04671875 7.52757813 -10.0625 6.51757812 C-8.67664018 1.3002235 -4.95665502 0.01619688 0 0 Z " fill="#000000" transform="translate(104.53125,110.482421875)"/>
</svg>
